inDegrees=yes
name=ik_S53_A13_T02
DataType=double
version=3
OpenSimVersion=4.3-2021-08-27-4bc7ad9
endheader
time	pelvis_tilt	pelvis_list	pelvis_rotation	pelvis_tx	pelvis_ty	pelvis_tz	hip_flexion_r	hip_adduction_r	hip_rotation_r	knee_angle_r	knee_angle_r_beta	ankle_angle_r	subtalar_angle_r	mtp_angle_r	hip_flexion_l	hip_adduction_l	hip_rotation_l	knee_angle_l	knee_angle_l_beta	ankle_angle_l	subtalar_angle_l	mtp_angle_l	lumbar_extension	lumbar_bending	lumbar_rotation	arm_flex_r	arm_add_r	arm_rot_r	elbow_flex_r	pro_sup_r	wrist_flex_r	wrist_dev_r	arm_flex_l	arm_add_l	arm_rot_l	elbow_flex_l	pro_sup_l	wrist_flex_l	wrist_dev_l
0	0	0	0	0	0.9399999999999999	0	0	0	0	0	0	0	0	0	0	0	0	0	0	0	0	0	0	0	0	0	0	0	0	89.99999999963507	0	0	0	0	0	0	89.99999999869995	0	0
0.01666666666666667	-1.649994827197632	-4.639821803264369	37.58272826713882	0	0.9399999999999999	0	2.413106361522629	-1.147069103251284	-0.8111214587356482	3.649637265983172	0.06369818679489039	0	0	0	2.413106361522629	-1.147069103251284	-0.8111214587356482	3.649637265983172	0.06369818679489039	0	0	0	-0.8400877580814429	0.1392639013732778	11.58146802329452	20.8578978176363	-4.003939335613325	16.04056968309235	34.22440661722968	179.9053215420568	0	0	10.89179186719822	-12.00377088688698	10.15719277605789	34.19909017869649	151.1375644494701	0	0
0.03333333333333333	-1.662598910495596	-4.63388302134965	37.6147469081081	0	0.9399999999999999	0	2.420800189521009	-1.151057182398267	-0.8137388034945859	3.660758968827219	0.06389229712794743	0	0	0	2.420800189521009	-1.151057182398267	-0.8137388034945859	3.660758968827219	0.06389229712794743	0	0	0	-0.8508511422323836	0.1561620841145441	11.51228569576344	21.01358403450202	-4.129900260626649	16.32164406928751	34.48867784603452	179.9144361651981	0	0	10.89779864031346	-12.01393532361056	10.21070267568153	34.24826849236601	151.1084798452297	0	0
0.05	-1.664778561994925	-4.635628459276669	37.66236595783234	0	0.9399999999999999	0	2.430037917607069	-1.155850627825093	-0.8168822066946146	3.674106197163499	0.064125250208431	0	0	0	2.430037917607069	-1.155850627825093	-0.8168822066946146	3.674106197163499	0.064125250208431	0	0	0	-0.8565169073142672	0.1593202352252489	11.46353237070979	21.11033649929753	-4.191114009417536	16.55472995661144	34.78406906476804	179.9176057917823	0	0	10.91342545886396	-12.01931502431443	10.2588958893031	34.26205534894953	151.0751610243397	0	0
0.06666666666666667	-1.647469595157755	-4.641295298024298	37.73809285904944	0	0.9399999999999999	0	2.45175014948982	-1.167134401339188	-0.8242735259939398	3.705447538631182	0.06467225980903391	0	0	0	2.45175014948982	-1.167134401339188	-0.8242735259939398	3.705447538631182	0.06467225980903391	0	0	0	-0.848926108132627	0.1464933036846455	11.4215925090167	21.16020091086536	-4.279494906061705	16.82749620996104	35.1673870654868	179.9232362327261	0	0	10.93897876672988	-12.05923475957604	10.28416834978432	34.24286067437625	151.1150205781327	0	0
0.08333333333333333	-1.651224323066943	-4.639626018471022	37.79760619719718	0	0.9399999999999999	0	2.459414595293425	-1.171105761754718	-0.8268816326877817	3.716495461066024	0.06486508243102684	0	0	0	2.459414595293425	-1.171105761754718	-0.8268816326877817	3.716495461066024	0.06486508243102684	0	0	0	-0.8544338399275402	0.1543775224884008	11.35891954206771	21.32565435978383	-4.369779635458205	17.18210582660771	35.46077761593027	179.9294924578255	0	0	10.93764043242276	-12.05481790676004	10.30118081757746	34.26971110963981	151.0772413958419	0	0
0.09999999999999999	-1.645508361827292	-4.64069708102014	37.85401092551397	0	0.9399999999999999	0	2.470659096990122	-1.176939472700356	-0.8307091840878437	3.732695453861144	0.06514782564410106	0	0	0	2.470659096990122	-1.176939472700356	-0.8307091840878437	3.732695453861144	0.06514782564410106	0	0	0	-0.8541956644344418	0.1543460335795557	11.29411945727416	21.43283823219259	-4.406799315162073	17.55144143341266	35.76698199893821	179.9331969445008	0	0	10.95208733013407	-12.06263711354805	10.27866971459762	34.25324865460811	151.1022594364236	0	0
0.1166666666666667	-1.637726644817445	-4.627736810653627	37.87192784036169	0	0.9399999999999999	0	2.482790664133525	-1.1832357792163	-0.8348394348350396	3.75015981754279	0.0654526362921115	0	0	0	2.482790664133525	-1.1832357792163	-0.8348394348350396	3.75015981754279	0.0654526362921115	0	0	0	-0.8429477042587539	0.1630082775519719	11.24399966516898	21.48013408683903	-4.391719652067348	17.73932535799572	35.70978572151867	179.9286992069013	0	0	10.91672949679036	-12.04649212373959	10.23270984276633	34.24788622761078	151.0828931107915	0	0
0.1333333333333333	-1.632841681500931	-4.615875859033125	37.89766610440159	0	0.9399999999999999	0	2.494335962802978	-1.189226408815191	-0.8387703615256503	3.766765578534598	0.06574246149621778	0	0	0	2.494335962802978	-1.189226408815191	-0.8387703615256503	3.766765578534598	0.06574246149621778	0	0	0	-0.8339725168471931	0.1720735401911369	11.20314398007537	21.54293550142638	-4.369117159141914	17.909767573331	35.6240421100142	179.9240867250076	0	0	10.90366808668939	-12.02108631214436	10.19921136933611	34.23696707048065	151.0340037599986	0	0
0.15	-1.635497243547395	-4.622358456931321	37.93979161749012	0	0.9399999999999999	0	2.504520262369255	-1.194506880544886	-0.84223777410449	3.781401021500706	0.06599789816346421	0	0	0	2.504520262369255	-1.194506880544886	-0.84223777410449	3.781401021500706	0.06599789816346421	0	0	0	-0.8424833812589895	0.1718311271053655	11.15649745307449	21.60189883147463	-4.355796039156119	18.1239210726433	35.90239608225698	179.9305013630889	0	0	10.91990179667249	-12.0162458931237	10.18447276886375	34.25183307241031	151.0198170128709	0	0
0.1666666666666667	-1.627195957411524	-4.621683834595479	37.95624769065305	0	0.9399999999999999	0	2.517531881417427	-1.201257753302431	-0.8466688224116931	3.800085618810122	0.06632400590592279	0	0	0	2.517531881417427	-1.201257753302431	-0.8466688224116931	3.800085618810122	0.06632400590592279	0	0	0	-0.8372339027940859	0.1688700674367304	11.12851410978816	21.57150153024865	-4.347478517941651	18.12361949114384	35.93669824284638	179.930403812406	0	0	10.92306975341367	-11.99056269024554	10.14293206951807	34.25373797045986	151.0526428208025	0	0
0.1833333333333333	-1.625756552418625	-4.595849862828823	38.019746622277	0	0.9399999999999999	0	2.525181478464736	-1.205218673645014	-0.8492731429483098	3.811059631990507	0.06651553856807776	0	0	0	2.525181478464736	-1.205218673645014	-0.8492731429483098	3.811059631990507	0.06651553856807776	0	0	0	-0.8228995760530228	0.1921452197314396	11.07464249710186	21.61073146508225	-4.232019780903958	18.49314706741403	36.22009201150079	179.9305527559445	0	0	10.91912011493652	-11.95169248030055	10.15176067157448	34.26336780867238	151.0158357315588	0	0
0.2	-1.590313458600493	-4.592971472275075	38.0562596459042	0	0.9399999999999999	0	2.54553819286965	-1.215780014195358	-0.8562070956218435	3.840238631726073	0.06702480818590194	0	0	0	2.54553819286965	-1.215780014195358	-0.8562070956218435	3.840238631726073	0.06702480818590194	0	0	0	-0.796556665457153	0.1761681308750513	11.01472293431506	21.60927424356006	-4.121768362363954	18.80230363113855	36.3682840709512	179.9314773283393	0	0	10.87714023821978	-11.9855727817838	10.08800675655451	34.22782592062742	151.0856337260835	0	0
0.2166666666666666	-1.603923607094138	-4.57947297350014	38.09905330258911	0	0.9399999999999999	0	2.553428950821943	-1.219864056449598	-0.8588940181052974	3.851535655217164	0.06722197844149663	0	0	0	2.553428950821943	-1.219864056449598	-0.8588940181052974	3.851535655217164	0.06722197844149663	0	0	0	-0.801548540617851	0.1987356331914636	10.96428290312008	21.68833721057266	-4.106917707816561	19.10168457100757	36.42053664295673	179.9328794645409	0	-1.077613842297402e-35	10.9043149582077	-11.95289432690774	10.09152789988816	34.24421875684446	151.0440317072592	0	-1.077613842297402e-35
0.2333333333333333	-1.593300969241066	-4.563208757932371	38.14209105721226	0	0.9399999999999999	0	2.563382000829072	-1.225018711314229	-0.8622838526117566	3.865777265404723	0.0674705414300551	0	0	0	2.563382000829072	-1.225018711314229	-0.8622838526117566	3.865777265404723	0.0674705414300551	0	0	0	-0.7853772340035702	0.2079723867653235	10.91995296490535	21.71280680323682	-4.033333150976676	19.36877279093104	36.38246975542768	179.9327322921064	0	0	10.90165058196112	-11.93362883400281	10.09337995015257	34.21408143652496	151.0486730384953	0	0
